<?xml version="1.0" standalone="no"?>
<!DOCTYPE svg PUBLIC "-//W3C//DTD SVG 20010904//EN"
 "http://www.w3.org/TR/2001/REC-SVG-20010904/DTD/svg10.dtd">
<svg version="1.0" xmlns="http://www.w3.org/2000/svg"
 width="326.000000pt" height="253.000000pt" viewBox="0 0 326.000000 253.000000"
 preserveAspectRatio="xMidYMid meet">
<metadata>
Created by potrace 1.16, written by Peter Selinger 2001-2019
</metadata>
<g transform="translate(0.000000,253.000000) scale(0.100000,-0.100000)"
fill="#000000" stroke="none">
<path d="M1440 2495 c0 -32 -2 -35 -30 -35 -27 0 -30 -3 -30 -30 0 -27 3 -30
30 -30 27 0 30 -3 30 -30 0 -27 -3 -30 -30 -30 -27 0 -30 -3 -30 -30 0 -27 3
-30 30 -30 27 0 30 -3 30 -34 0 -27 7 -39 35 -60 l35 -27 0 -290 0 -289 -23 0
c-37 0 -138 -29 -192 -55 -98 -47 -165 -141 -165 -229 0 -17 11 -66 25 -109
28 -88 32 -161 10 -213 -8 -19 -41 -63 -74 -97 -116 -122 -163 -231 -163 -377
1 -193 92 -345 256 -425 110 -54 234 -75 440 -75 362 0 560 80 654 265 41 82
54 151 50 264 -5 139 -34 205 -142 321 -42 44 -83 97 -91 117 -22 52 -18 131
10 229 14 47 25 96 25 108 0 117 -119 223 -296 264 l-79 19 0 282 -1 281 33
32 c24 23 33 41 33 65 0 30 3 33 30 33 27 0 30 3 30 30 0 27 -3 30 -30 30 -27
0 -30 3 -30 30 0 27 3 30 30 30 27 0 30 3 30 30 0 27 -3 30 -30 30 -28 0 -30
3 -30 35 l0 35 -190 0 -190 0 0 -35z m250 -620 c0 -383 -3 -585 -10 -585 -7 0
-10 151 -10 433 0 239 -2 436 -5 439 -3 3 -20 2 -38 -1 l-32 -7 -5 -304 c-3
-181 -8 -293 -13 -276 -8 30 -8 521 1 589 4 38 4 38 29 22 22 -15 26 -15 49 0
23 15 24 20 24 130 0 65 -4 116 -10 120 -15 9 -12 25 5 25 13 0 15 -72 15
-585z m-180 -548 l0 -194 -41 -33 c-56 -44 -89 -117 -89 -195 0 -87 30 -144
104 -203 25 -19 27 -25 24 -94 l-3 -73 -85 0 c-47 -1 -86 -5 -88 -10 -1 -6 25
-49 58 -97 l61 -88 183 0 184 0 61 95 c34 52 61 96 61 98 0 1 -40 0 -90 -1
l-90 -4 0 79 0 79 45 44 c78 77 98 191 49 289 -15 28 -42 64 -60 79 l-34 27 0
198 0 197 28 0 c84 0 201 -54 238 -110 44 -66 48 -110 20 -209 -38 -131 -39
-145 -22 -206 13 -43 31 -70 89 -132 84 -90 110 -130 137 -207 70 -205 -6
-425 -180 -520 -141 -77 -549 -98 -775 -40 -80 21 -168 69 -207 113 -75 85
-117 239 -97 360 18 117 52 180 159 298 55 60 74 89 87 132 16 54 15 59 -7
141 -53 193 -32 278 80 335 47 24 117 43 163 44 l37 1 0 -193z m300 -864 c-1
-5 -9 -18 -19 -30 -18 -22 -26 -23 -161 -23 -135 0 -143 1 -161 23 -10 12 -18
25 -19 30 0 4 81 7 180 7 99 0 180 -3 180 -7z"/>
</g>
</svg>
